<svg xmlns="http://www.w3.org/2000/svg" width="512" height="512" viewBox="0 0 512 512">
  <defs>
    <linearGradient id="bg" x1="0%" y1="0%" x2="100%" y2="100%">
      <stop offset="0%" stop-color="#3b82f6" />
      <stop offset="100%" stop-color="#1d4ed8" />
    </linearGradient>
    <linearGradient id="accent" x1="0%" y1="0%" x2="100%" y2="100%">
      <stop offset="0%" stop-color="#ffffff" />
      <stop offset="100%" stop-color="#e0e7ff" />
    </linearGradient>
  </defs>
  <!-- Rounded Background -->
  <rect width="512" height="512" rx="100" fill="url(#bg)" />
  <!-- Book Motif -->
  <path d="M128 140 C170 120, 220 125, 256 150 C292 125, 342 120, 384 140 L384 360 C342 340, 292 345, 256 370 C220 345, 170 340, 128 360 Z" fill="none" stroke="url(#accent)" stroke-width="24" stroke-linecap="round" stroke-linejoin="round"/>
  <path d="M256 150 L256 370" stroke="url(#accent)" stroke-width="24" stroke-linecap="round"/>
  <!-- AI Sparkle -->
  <path d="M370 120 Q370 150, 400 150 Q370 150, 370 180 Q370 150, 340 150 Q370 150, 370 120 Z" fill="#fbbf24" />
</svg>
